<svg width="166" height="28" viewBox="0 0 166 28" fill="none" xmlns="http://www.w3.org/2000/svg">
<path d="M23.1886 9.66235C22.1851 7.0738 20.315 4.91331 17.8971 3.54898C15.4792 2.18464 12.6631 1.7009 9.92848 2.18015C7.1939 2.65941 4.71009 4.07202 2.90026 6.17729C1.09044 8.28256 0.0665767 10.9502 0.00313368 13.7258C-0.0603094 16.5013 0.840591 19.213 2.55233 21.3988C4.26407 23.5845 6.68074 25.1091 9.39057 25.7129C12.1004 26.3166 14.9357 25.962 17.4134 24.7096C19.8912 23.4571 21.858 21.3843 22.9787 18.8444L12 14L23.1886 9.66235Z" fill="#D3F85A"/>
<circle cx="5.14287" cy="13.9999" r="1.71429" fill="#090F1D"/>
<path d="M48.656 19.608C48.224 19.944 47.392 20.32 46.16 20.736C44.944 21.152 43.608 21.36 42.152 21.36C39.384 21.36 37.112 20.504 35.336 18.792C33.576 17.08 32.696 14.92 32.696 12.312C32.696 9.704 33.624 7.512 35.48 5.736C37.336 3.96 39.672 3.072 42.488 3.072C44.472 3.072 46.496 3.416 48.56 4.104L49.04 8.256L48.824 8.328C47.56 6.568 46.464 5.336 45.536 4.632C44.608 3.928 43.52 3.576 42.272 3.576C41.248 3.576 40.352 3.792 39.584 4.224C38.832 4.64 38.232 5.248 37.784 6.048C37.336 6.848 37.008 7.768 36.8 8.808C36.592 9.832 36.488 11 36.488 12.312C36.488 14.952 36.968 17.04 37.928 18.576C38.888 20.096 40.304 20.856 42.176 20.856C43.648 20.856 44.88 20.376 45.872 19.416C46.864 18.456 47.88 16.976 48.92 14.976L49.136 15.048L48.656 19.608ZM51.3389 21V20.952C51.7069 19.752 51.8909 18.28 51.8909 16.536V13.752C51.8909 12.376 51.5149 11.232 50.7629 10.32V10.272L54.8669 8.952V11.88H54.8909C54.9709 11.8 55.1709 11.576 55.4909 11.208C55.8109 10.84 56.0589 10.568 56.2349 10.392C56.4269 10.216 56.6749 10 56.9789 9.744C57.2989 9.488 57.6189 9.312 57.9389 9.216C58.2589 9.104 58.5869 9.056 58.9229 9.072L58.7069 12.504H58.5869C58.3469 12.232 57.9789 11.992 57.4829 11.784C57.0029 11.576 56.6109 11.472 56.3069 11.472C55.8909 11.472 55.4429 11.76 54.9629 12.336V16.536C54.9629 18.488 55.1469 19.96 55.5149 20.952V21H51.3389ZM65.3795 9.504C64.6275 9.504 64.0355 9.88 63.6035 10.632C63.1875 11.384 62.9475 12.344 62.8835 13.512L67.2995 13.416V12.864C67.2995 10.624 66.6595 9.504 65.3795 9.504ZM70.3475 17.688C70.0115 18.792 69.4115 19.68 68.5475 20.352C67.6995 21.024 66.6435 21.36 65.3795 21.36C63.7155 21.36 62.3635 20.8 61.3235 19.68C60.2995 18.544 59.7875 17.128 59.7875 15.432C59.7875 13.576 60.3555 12.056 61.4915 10.872C62.6275 9.672 63.9635 9.072 65.4995 9.072C66.9555 9.072 68.1315 9.584 69.0275 10.608C69.9395 11.616 70.3795 12.728 70.3475 13.944L62.8835 13.92V13.992C62.8835 15.72 63.2435 16.992 63.9635 17.808C64.6995 18.608 65.6995 19.008 66.9635 19.008C68.3395 19.008 69.4195 18.544 70.2035 17.616L70.3475 17.688ZM76.0171 19.704C76.6091 19.704 77.1211 19.544 77.5531 19.224V15.456C75.4091 16 74.3371 16.904 74.3371 18.168C74.3371 18.648 74.4811 19.024 74.7691 19.296C75.0731 19.568 75.4891 19.704 76.0171 19.704ZM79.8811 21.312C79.2411 21.312 78.7291 21.16 78.3451 20.856C77.9611 20.552 77.7211 20.144 77.6251 19.632C76.7131 20.784 75.5691 21.36 74.1931 21.36C73.4251 21.36 72.7931 21.176 72.2971 20.808C71.8171 20.44 71.5771 19.888 71.5771 19.152C71.5771 17.168 73.5691 15.792 77.5531 15.024V12.912C77.5531 12.208 77.3851 11.688 77.0491 11.352C76.7131 11.016 76.1291 10.848 75.2971 10.848C74.1291 10.848 73.0811 11.144 72.1531 11.736L72.0331 11.568C73.3451 9.904 75.0731 9.072 77.2171 9.072C78.4011 9.072 79.2651 9.344 79.8091 9.888C80.3531 10.432 80.6251 11.16 80.6251 12.072V18.6C80.6251 19.304 80.9531 19.656 81.6091 19.656C81.9771 19.656 82.3291 19.528 82.6651 19.272L82.7131 19.344C82.0731 20.656 81.1291 21.312 79.8811 21.312ZM87.3502 21.36C85.3662 21.36 84.3742 20.328 84.3742 18.264V9.912H83.0542V9.744L87.2062 6.696H87.4462V9.432H90.4462V9.912H87.4462V18.168C87.4462 19.4 88.0142 20.016 89.1502 20.016C89.4062 20.016 89.6542 19.984 89.8942 19.92C90.1342 19.856 90.3102 19.8 90.4222 19.752C90.5342 19.688 90.6062 19.64 90.6382 19.608L90.7102 19.68C89.9902 20.8 88.8702 21.36 87.3502 21.36ZM95.7202 5.232C95.7202 5.712 95.5442 6.12 95.1922 6.456C94.8562 6.792 94.4482 6.96 93.9682 6.96C93.4882 6.96 93.0802 6.792 92.7442 6.456C92.4082 6.12 92.2402 5.712 92.2402 5.232C92.2402 4.768 92.4082 4.368 92.7442 4.032C93.0802 3.68 93.4882 3.504 93.9682 3.504C94.4482 3.504 94.8562 3.68 95.1922 4.032C95.5442 4.368 95.7202 4.768 95.7202 5.232ZM92.0962 20.952C92.4802 19.528 92.6722 18.056 92.6722 16.536V13.824C92.6722 12.416 92.2882 11.28 91.5202 10.416V10.272L95.7202 8.952V16.536C95.7202 18.472 95.9042 19.944 96.2722 20.952V21H92.0962V20.952ZM98.6711 12.648C98.0951 11.176 97.5271 10.12 96.9671 9.48V9.432H101.935V9.48C101.743 9.784 101.631 10.192 101.599 10.704C101.583 11.216 101.695 11.832 101.935 12.552L103.735 17.304L105.463 13.008C105.655 12.496 105.759 11.992 105.775 11.496C105.791 10.984 105.751 10.576 105.655 10.272C105.559 9.952 105.439 9.688 105.295 9.48V9.432H108.055V9.48C107.303 10.296 106.647 11.384 106.087 12.744L102.679 21.216H102.055L98.6711 12.648ZM113.614 9.504C112.862 9.504 112.27 9.88 111.838 10.632C111.422 11.384 111.182 12.344 111.118 13.512L115.534 13.416V12.864C115.534 10.624 114.894 9.504 113.614 9.504ZM118.582 17.688C118.246 18.792 117.646 19.68 116.782 20.352C115.934 21.024 114.878 21.36 113.614 21.36C111.95 21.36 110.598 20.8 109.558 19.68C108.534 18.544 108.022 17.128 108.022 15.432C108.022 13.576 108.59 12.056 109.726 10.872C110.862 9.672 112.198 9.072 113.734 9.072C115.19 9.072 116.366 9.584 117.262 10.608C118.174 11.616 118.614 12.728 118.582 13.944L111.118 13.92V13.992C111.118 15.72 111.478 16.992 112.198 17.808C112.934 18.608 113.934 19.008 115.198 19.008C116.574 19.008 117.654 18.544 118.438 17.616L118.582 17.688Z" fill="white"/>
<path d="M124.252 19.704C124.844 19.704 125.356 19.544 125.788 19.224V15.456C123.644 16 122.572 16.904 122.572 18.168C122.572 18.648 122.716 19.024 123.004 19.296C123.308 19.568 123.724 19.704 124.252 19.704ZM128.116 21.312C127.476 21.312 126.964 21.16 126.58 20.856C126.196 20.552 125.956 20.144 125.86 19.632C124.948 20.784 123.804 21.36 122.428 21.36C121.66 21.36 121.028 21.176 120.532 20.808C120.052 20.44 119.812 19.888 119.812 19.152C119.812 17.168 121.804 15.792 125.788 15.024V12.912C125.788 12.208 125.62 11.688 125.284 11.352C124.948 11.016 124.364 10.848 123.532 10.848C122.364 10.848 121.316 11.144 120.388 11.736L120.268 11.568C121.58 9.904 123.308 9.072 125.452 9.072C126.636 9.072 127.5 9.344 128.044 9.888C128.588 10.432 128.86 11.16 128.86 12.072V18.6C128.86 19.304 129.188 19.656 129.844 19.656C130.212 19.656 130.564 19.528 130.9 19.272L130.948 19.344C130.308 20.656 129.364 21.312 128.116 21.312ZM131.87 21V20.952C132.238 19.752 132.422 18.28 132.422 16.536V13.752C132.422 12.376 132.046 11.232 131.294 10.32V10.272L135.398 8.952V11.88H135.422C135.502 11.8 135.702 11.576 136.022 11.208C136.342 10.84 136.59 10.568 136.766 10.392C136.958 10.216 137.206 10 137.51 9.744C137.83 9.488 138.15 9.312 138.47 9.216C138.79 9.104 139.118 9.056 139.454 9.072L139.238 12.504H139.118C138.878 12.232 138.51 11.992 138.014 11.784C137.534 11.576 137.142 11.472 136.838 11.472C136.422 11.472 135.974 11.76 135.494 12.336V16.536C135.494 18.488 135.678 19.96 136.046 20.952V21H131.87ZM144.678 21.36C142.694 21.36 141.702 20.328 141.702 18.264V9.912H140.382V9.744L144.534 6.696H144.774V9.432H147.774V9.912H144.774V18.168C144.774 19.4 145.342 20.016 146.478 20.016C146.734 20.016 146.982 19.984 147.222 19.92C147.462 19.856 147.638 19.8 147.75 19.752C147.862 19.688 147.934 19.64 147.966 19.608L148.038 19.68C147.318 20.8 146.198 21.36 144.678 21.36Z" fill="#D3F85A"/>
</svg>
